# xmcd CD database file
#
# Track frame offsets:
#	150
#	43337
#	82642
#	91835
#	133702
#	167710
#	188727
#
# Disc length: 3030 seconds
#
# Revision: 0
# Processed by: cddbd v1.5.2PL0 Copyright (c) Steve Scherf et al.
# Submitted via: CDex 1.70beta2
#
DISCID=4e0bd407
DTITLE=Tokyo Zawinul Bach - Cool Cluster
DYEAR=2002
DGENRE=Jazz
TTITLE0=Poly Gravity
TTITLE1=Jackson Pollock Program
TTITLE2=Rain of Zero Gravity
TTITLE3=Walking Smartman
TTITLE4=The Age of Cyber Funk
TTITLE5=Bird Conduct 2
TTITLE6=Procession
EXTD=YEAR: 2002
EXTT0=
EXTT1=
EXTT2=
EXTT3=
EXTT4=
EXTT5=
EXTT6=
PLAYORDER=
